<svg width="20" height="21" viewBox="0 0 20 21" fill="none" xmlns="http://www.w3.org/2000/svg">
<g id="Icon/Plus">
<path id="Plus" fill-rule="evenodd" clip-rule="evenodd" d="M11 9.93872H16C16.5523 9.93872 17 10.3864 17 10.9387C17 11.491 16.5523 11.9387 16 11.9387H11V16.9387C11 17.491 10.5523 17.9387 10 17.9387C9.44772 17.9387 9 17.491 9 16.9387V11.9387H4C3.44772 11.9387 3 11.491 3 10.9387C3 10.3864 3.44772 9.93872 4 9.93872H9V4.93872C9 4.38644 9.44772 3.93872 10 3.93872C10.5523 3.93872 11 4.38644 11 4.93872V9.93872Z" fill="#434343"/>
</g>
</svg>
