<svg width="25" height="25" viewBox="0 0 25 25" fill="none" xmlns="http://www.w3.org/2000/svg">
<g id="icon/star">
<path id="Star 2" d="M10.1754 3.77141C10.9801 2.0762 13.3051 2.0762 14.1098 3.77141L15.5005 6.70118C15.82 7.37435 16.4377 7.84094 17.1522 7.94888L20.2619 8.41869C22.0612 8.69053 22.7797 10.9895 21.4777 12.3091L19.2275 14.5896C18.7105 15.1136 18.4745 15.8685 18.5966 16.6084L19.1278 19.8285C19.4352 21.6918 17.5542 23.1126 15.9448 22.2329L13.1634 20.7126C12.5243 20.3633 11.7608 20.3633 11.1217 20.7126L8.34034 22.2329C6.73097 23.1126 4.85 21.6918 5.15736 19.8286L5.68857 16.6084C5.81062 15.8685 5.57469 15.1136 5.05766 14.5896L2.80745 12.3091C1.50544 10.9895 2.22391 8.69053 4.02324 8.41869L7.13295 7.94888C7.84747 7.84094 8.46514 7.37435 8.78469 6.70118L10.1754 3.77141Z" fill="#FFC000"/>
</g>
</svg>
