<svg width="15" height="16" viewBox="0 0 15 16" fill="none" xmlns="http://www.w3.org/2000/svg">
<g id="Vector">
<path id="Vector-34" fill-rule="evenodd" clip-rule="evenodd" d="M10.4522 7.93867C10.479 9.45712 9.27063 10.7102 7.75222 10.7387C6.23341 10.7108 5.02447 9.4575 5.05122 7.93867C5.02446 6.42023 6.2328 5.16713 7.75122 5.13867C9.27002 5.16659 10.479 6.41984 10.4522 7.93867Z" stroke="#C4C4C4" stroke-linecap="round" stroke-linejoin="round"/>
<path id="Vector-35" d="M13.8283 10.6215C13.2601 12.0803 12.2124 13.3024 10.8573 14.0865C9.53083 14.8487 7.97521 15.1105 6.47231 14.8245C4.95631 14.5277 3.59247 13.7084 2.61831 12.5095C0.566955 9.9737 0.454952 6.38221 2.34431 3.72351C3.24122 2.46069 4.55036 1.55009 6.04631 1.14851C7.52463 0.759517 9.09347 0.914236 10.4673 1.58451C11.868 2.27393 12.9903 3.42233 13.6473 4.83851L13.6943 4.93851C14.4083 6.56751 13.8663 9.33851 12.1403 9.33851C11.1876 9.3172 10.4322 8.52824 10.4523 7.57551" stroke="#C4C4C4" stroke-linecap="round" stroke-linejoin="round"/>
</g>
</svg>
