<svg width="48" height="49" viewBox="0 0 48 49" fill="none" xmlns="http://www.w3.org/2000/svg">
<g id="services=customer service">
<path d="M0 4.8501C0 2.64096 1.79086 0.850098 4 0.850098H44C46.2091 0.850098 48 2.64096 48 4.8501V44.8501C48 47.0592 46.2091 48.8501 44 48.8501H4C1.79086 48.8501 0 47.0592 0 44.8501V4.8501Z" fill="#EAF3FB"/>
<path id="Vector" d="M37.1264 33.9545C37.1013 33.9438 37.0755 33.9347 37.0491 33.9271L31.9218 32.3754C32.3915 32.2212 32.7962 31.9402 33.0804 31.5711C33.3646 31.2021 33.5141 30.7631 33.5085 30.3147V28.9167C33.6045 28.9232 33.7108 28.9276 33.7998 28.9276C34.5451 28.927 35.2694 28.7058 35.8601 28.2982C36.4508 27.8907 36.8749 27.3196 37.0665 26.6738L38.4139 22.0888C38.8223 20.6878 38.0226 19.2548 36.678 18.6305V15.2075C36.678 8.94499 30.9849 3.8501 24 3.8501C17.0151 3.8501 11.322 8.94499 11.322 15.2075V18.6305C9.9774 19.2548 9.17187 20.6876 9.58025 22.0888L10.9191 26.6738C11.0308 27.0571 11.2256 27.417 11.4925 27.7328C11.7593 28.0486 12.0929 28.3141 12.4743 28.5143C12.8556 28.7145 13.2772 28.8453 13.715 28.8994C14.1527 28.9534 14.598 28.9296 15.0255 28.8293L17.2588 28.3062C17.8875 28.8851 18.6051 29.3808 19.3898 29.7782V31.3731L10.9458 33.927C10.9209 33.9347 10.8965 33.9439 10.8729 33.9545C9.80281 34.4362 8.88753 35.1548 8.21376 36.0423C7.53998 36.9298 7.13001 37.9568 7.02267 39.0261C7.02142 39.0403 7 39.0546 7 39.0691V45.3102C7.00849 45.4534 7.07684 45.5885 7.19143 45.6885C7.30602 45.7886 7.45844 45.8463 7.61834 45.8501H40.3817C40.5416 45.8463 40.694 45.7886 40.8086 45.6885C40.9232 45.5885 40.9915 45.4534 41 45.3102V39.0689C41 39.0546 40.9782 39.0403 40.9769 39.0259C40.8695 37.9566 40.4595 36.9297 39.7857 36.0422C39.1118 35.1547 38.1965 34.4362 37.1264 33.9545ZM19.3898 44.8167H12.2825V42.6622C12.2825 42.5946 12.2677 42.5276 12.2388 42.4651C12.2099 42.4026 12.1677 42.3459 12.1143 42.2981C12.061 42.2502 11.9977 42.2123 11.928 42.1864C11.8583 42.1605 11.7837 42.1472 11.7082 42.1472H11.7042C11.6288 42.1472 11.5541 42.1605 11.4844 42.1864C11.4147 42.2123 11.3514 42.2502 11.2981 42.2981C11.2448 42.3459 11.2025 42.4026 11.1736 42.4651C11.1448 42.5276 11.1299 42.5946 11.1299 42.6622V44.8167H8.15254V39.091C8.34463 37.9726 8.79893 36.9249 9.60763 36.0991C10.3955 37.0341 10.9043 38.134 11.0859 39.2946C11.1083 39.4299 11.1895 39.5517 11.3118 39.6336C11.434 39.7155 11.5874 39.7507 11.7385 39.7317C11.8896 39.7126 12.0261 39.6407 12.1184 39.5318C12.2107 39.4228 12.2512 39.2856 12.2311 39.15C12.0079 37.7843 11.4031 36.4914 10.473 35.3915C10.7487 35.2023 11.043 35.0359 11.3523 34.8945L19.3898 32.4637V44.8167ZM32.3559 30.3147C32.3559 30.9581 31.8192 31.4692 31.1016 31.4692H28.9271L28.6102 31.3733V29.7765C29.3904 29.3783 30.1052 28.8849 30.734 28.3103L32.3559 28.6956V30.3147ZM32.4948 27.649L31.5255 27.4219L33.9791 19.0009L34.9492 19.228L32.4948 27.649ZM32.5607 18.6687C32.5567 18.7224 32.5364 18.7741 32.5019 18.8182L31.757 19.1306L31.4935 18.1561C30.8481 15.7633 29.2316 13.6719 26.9593 12.29C26.8347 12.2141 26.6818 12.1849 26.5335 12.2089C26.3852 12.2328 26.2532 12.3078 26.1659 12.4179C25.364 13.4277 24.2768 14.2279 23.016 14.7365C21.7551 15.2452 20.3661 15.4438 18.9913 15.3121L18.2867 15.2442C18.1619 15.2321 18.0357 15.2427 17.9155 15.2751C17.7953 15.3075 17.6837 15.3613 17.587 15.4331C17.4904 15.5048 17.4108 15.5933 17.3529 15.6931C17.2951 15.793 17.2601 15.9022 17.2501 16.0144L16.9845 18.9926C16.5868 18.9277 16.0082 18.8173 15.4891 18.7091C15.4614 18.6852 15.4446 18.653 15.4418 18.6186L15.2401 16.0008C15.1573 14.9235 15.3224 13.8424 15.7253 12.8248C16.1282 11.8072 16.7602 10.8747 17.582 10.0853C18.4038 9.29594 19.3979 8.66653 20.5025 8.23619C21.6071 7.80585 22.7986 7.58379 24.003 7.58379C25.2074 7.58379 26.3989 7.80585 27.5035 8.23619C28.6081 8.66653 29.6022 9.29594 30.4241 10.0853C31.2459 10.8747 31.8779 11.8072 32.2807 12.8248C32.6836 13.8424 32.8488 14.9235 32.7659 16.0008L32.5607 18.6687ZM37.2995 21.8276L35.9633 26.4126C35.8301 26.8675 35.5212 27.2651 35.0916 27.5348C34.6619 27.8045 34.1394 27.9286 33.6172 27.8852L36.0567 19.515C36.5357 19.7062 36.9235 20.0435 37.151 20.467C37.3786 20.8905 37.4312 21.3726 37.2995 21.8276ZM12.4746 15.2075C12.4746 9.5148 17.6507 4.88346 24 4.88346C30.3493 4.88346 35.5254 9.5148 35.5254 15.2075V18.2926L33.7763 17.884L33.9157 16.0721C34.0094 14.8535 33.8226 13.6306 33.3669 12.4795C32.9112 11.3283 32.1963 10.2735 31.2666 9.38051C30.337 8.48756 29.2124 7.77555 27.9629 7.28874C26.7133 6.80194 25.3655 6.55073 24.0031 6.55073C22.6407 6.55073 21.2928 6.80194 20.0433 7.28874C18.7937 7.77555 17.6692 8.48756 16.7395 9.38051C15.8099 10.2735 15.095 11.3283 14.6393 12.4795C14.1835 13.6306 13.9967 14.8535 14.0904 16.0721L14.2298 17.8829L12.4746 18.2926V15.2075ZM12.0367 26.4126L10.7005 21.8276C10.5687 21.3725 10.6213 20.8903 10.8489 20.4667C11.0765 20.0431 11.4644 19.7057 11.9435 19.5145L14.3831 27.8847C13.8609 27.9282 13.3384 27.8041 12.9087 27.5345C12.4791 27.265 12.17 26.8674 12.0367 26.4126ZM15.5052 27.649L13.0508 19.228L14.0209 19.0009L16.4745 27.4219L15.5052 27.649ZM17.5579 27.0523L15.4325 19.7585C17.5171 20.189 17.6378 20.1111 17.8468 19.9745C17.9154 19.9297 17.9723 19.8721 18.0138 19.8058C18.0552 19.7394 18.0802 19.6658 18.0869 19.59L18.381 16.2929L18.8675 16.34C20.3482 16.4817 21.845 16.2899 23.222 15.7819C24.5991 15.2738 25.813 14.4657 26.7537 13.4307C28.5609 14.6653 29.839 16.42 30.373 18.4L30.8026 19.9881C30.8227 20.0624 30.861 20.1319 30.9147 20.1914C30.9685 20.2508 31.0362 20.2989 31.1132 20.332C31.1901 20.3651 31.2743 20.3825 31.3597 20.3829C31.4451 20.3833 31.5295 20.3667 31.6068 20.3342L32.511 19.9553L30.4411 27.0565C29.6659 27.9197 28.6847 28.6161 27.5697 29.0945C26.4547 29.5728 25.2343 29.8209 23.9982 29.8205C22.7622 29.8202 21.5419 29.5713 20.4273 29.0923C19.3127 28.6133 18.332 27.9163 17.5575 27.0526L17.5579 27.0523ZM26.7853 31.3831V32.6748H23.8079V31.3831H26.7853ZM27.4576 44.8167H20.5424V35.231C21.6113 35.7261 22.7969 35.9845 24 35.9845C25.2031 35.9845 26.3887 35.7261 27.4576 35.231V44.8167ZM27.4576 34.0393C26.4266 34.6344 25.2262 34.9509 24 34.9509C22.7738 34.9509 21.5734 34.6344 20.5424 34.0393V30.2684C21.2429 30.5188 21.9757 30.6895 22.7236 30.7765C22.6782 30.8735 22.655 30.9777 22.6554 31.0829V32.9293C22.6554 33.3379 22.9849 33.708 23.4407 33.708H27.1512C27.2571 33.7082 27.3617 33.6873 27.4576 33.6471V34.0393ZM35.7175 44.8167H28.6102V32.5025H28.7376L36.6421 34.8944C36.9652 35.0431 37.2716 35.2192 37.5571 35.4203C36.3675 36.8194 35.7215 38.5291 35.7175 40.2884V44.8167ZM39.8475 44.8167H36.8701V40.2884C36.8818 38.7924 37.4247 37.3386 38.4199 36.1377C39.2075 36.9575 39.6554 37.9899 39.8475 39.0914V44.8167Z" fill="#3E60C9"/>
</g>
</svg>
