<svg width="41" height="35" viewBox="0 0 41 35" fill="none" xmlns="http://www.w3.org/2000/svg">
<path id="Vector" d="M40.332 6.53896L37.1048 2.32838C36.7513 1.86999 36.2977 1.49848 35.7786 1.24226C35.2596 0.986049 34.6888 0.851908 34.11 0.850098H7.54587C7.02329 0.850853 6.50653 0.959846 6.02816 1.17021C5.54979 1.38057 5.12018 1.68774 4.76641 2.07236L0.696016 6.50517L0.696426 6.50574C0.612801 6.59633 0.566377 6.7151 0.566406 6.83838V7.98682C0.567114 8.47887 0.665185 8.96592 0.854967 9.41991C1.04475 9.87389 1.32249 10.2858 1.67219 10.632C2.27417 11.2441 3.0745 11.6218 3.92969 11.6973V30.8724C3.9261 31.3659 4.02002 31.8552 4.20606 32.3123C4.39209 32.7694 4.66658 33.1852 5.01377 33.536C5.36095 33.8867 5.77399 34.1654 6.22917 34.356C6.68436 34.5467 7.17271 34.6456 7.66621 34.647H33.3338C33.8273 34.6456 34.3156 34.5467 34.7708 34.356C35.226 34.1654 35.639 33.8867 35.9862 33.536C36.3334 33.1852 36.6079 32.7694 36.7939 32.3123C36.98 31.8552 37.0739 31.3659 37.0703 30.8724V11.6973C37.9255 11.6218 38.7258 11.2441 39.3278 10.632C39.6775 10.2858 39.9552 9.87389 40.145 9.41991C40.3348 8.96592 40.4329 8.47887 40.4336 7.98682V6.83838C40.4336 6.73013 40.3977 6.62493 40.3316 6.53921L40.332 6.53896ZM34.11 1.83447C34.5379 1.8358 34.9598 1.93495 35.3435 2.12436C35.7272 2.31377 36.0625 2.58841 36.3238 2.92729L38.944 6.34619H33.7268L30.763 1.83447H34.11ZM27.1153 7.33057H32.9688V8.72748C32.9676 9.73831 32.5655 10.7074 31.8507 11.4222C31.136 12.1369 30.1669 12.539 29.156 12.5401C28.9748 12.5395 28.7939 12.5258 28.6146 12.4991C28.6159 12.4752 28.6176 12.4514 28.6188 12.4274C28.7059 10.6076 28.1762 8.81173 27.1153 7.33057ZM29.5845 1.83447L32.5483 6.34619H26.2875C25.7966 5.84761 25.2438 5.41404 24.6426 5.05609L23.3941 1.83447H29.5845ZM18.6612 1.83447H22.3382L23.345 4.43314C21.51 3.74658 19.4886 3.74696 17.6539 4.43421L18.6612 1.83447ZM17.6055 1.83447L16.3559 5.05953C15.7573 5.41704 15.2066 5.84941 14.7173 6.34619H8.55625L12.128 1.83447H17.6055ZM12.386 12.5078C12.2278 12.5292 12.0684 12.54 11.9087 12.5401C11.4091 12.5392 10.9145 12.4399 10.4533 12.2477C9.99215 12.0556 9.57334 11.7744 9.22086 11.4204C8.86837 11.0663 8.58913 10.6462 8.39909 10.1841C8.20904 9.72208 8.11192 9.22709 8.11328 8.72748V7.33057H13.8883C12.9658 8.61486 12.4409 10.1419 12.3789 11.7219C12.3686 11.9868 12.3714 12.2488 12.386 12.5078ZM5.49156 2.73772C5.75305 2.45346 6.07058 2.22645 6.42414 2.071C6.77771 1.91554 7.15964 1.83501 7.54587 1.83447H10.8727L7.30117 6.34619H2.17873L5.49156 2.73772ZM1.55078 7.98682V7.33057H7.04688V7.98682C7.05078 8.34878 6.98237 8.70788 6.84566 9.04306C6.70894 9.37823 6.50667 9.68273 6.2507 9.93869C5.99474 10.1947 5.69024 10.3969 5.35507 10.5336C5.01989 10.6704 4.66079 10.7388 4.29883 10.7349C3.93686 10.7388 3.57776 10.6704 3.24259 10.5336C2.90741 10.3969 2.60292 10.1947 2.34695 9.93869C2.09099 9.68273 1.88872 9.37823 1.752 9.04306C1.61528 8.70788 1.54687 8.34878 1.55078 7.98682ZM25.5859 33.6626H15.332V25.4595H25.5859V33.6626ZM25.5859 24.4751H15.332V22.4243H25.5859V24.4751ZM36.0859 30.8724C36.0897 31.2366 36.0213 31.598 35.8848 31.9358C35.7483 32.2735 35.5463 32.5809 35.2905 32.8402C35.0347 33.0996 34.7301 33.3057 34.3943 33.4469C34.0585 33.588 33.6981 33.6613 33.3338 33.6626H26.5703V22.2591C26.5703 21.8068 26.2433 21.4399 25.791 21.4399H15.209C14.7567 21.4399 14.3477 21.8068 14.3477 22.2591V33.6626H7.66621C7.30194 33.6613 6.94152 33.588 6.6057 33.4469C6.26988 33.3057 5.9653 33.0996 5.7095 32.8402C5.45369 32.5809 5.25172 32.2735 5.1152 31.9358C4.97869 31.598 4.91033 31.2366 4.91406 30.8724V11.6754C5.68842 11.548 6.40415 11.1835 6.96246 10.632C7.09676 10.4943 7.21997 10.3462 7.33095 10.189C7.64079 11.1565 8.2496 12.0006 9.06975 12.6C9.8899 13.1994 10.8791 13.5231 11.8949 13.5245C12.0975 13.5242 12.2999 13.511 12.5008 13.4848C12.6228 14.1657 12.8319 14.8281 13.123 15.4556C13.179 15.5721 13.2786 15.6619 13.4002 15.7056C13.5218 15.7493 13.6558 15.7434 13.7731 15.6892C13.8904 15.635 13.9817 15.5368 14.0272 15.4158C14.0728 15.2949 14.0689 15.1609 14.0165 15.0427C13.5659 14.0675 13.341 13.0032 13.3587 11.9291C13.3764 10.8549 13.6361 9.79863 14.1186 8.83878C14.601 7.87892 15.2938 7.04026 16.1453 6.38522C16.9968 5.73018 17.985 5.27565 19.0365 5.05546C20.088 4.83527 21.1756 4.85509 22.2183 5.11346C23.2611 5.37182 24.2322 5.86207 25.0592 6.5477C25.8862 7.23333 26.548 8.09668 26.9951 9.07349C27.4423 10.0503 27.6634 11.1154 27.6419 12.1894C27.5676 15.9612 24.5236 19.0538 20.7534 19.1848C18.9775 19.2494 17.2418 18.6469 15.8879 17.4959C15.809 17.4283 15.7108 17.3873 15.6072 17.3789C15.5037 17.3704 15.4001 17.3948 15.3113 17.4486C15.2447 17.4894 15.1887 17.5455 15.148 17.6122C15.1073 17.6788 15.083 17.7542 15.0772 17.8321C15.0713 17.91 15.084 17.9882 15.1143 18.0602C15.1446 18.1322 15.1915 18.196 15.2512 18.2463C16.8164 19.5771 18.8291 20.2629 20.8813 20.1648C24.694 19.9898 27.8434 17.1512 28.5008 13.4785C29.6119 13.6335 30.7422 13.3934 31.6943 12.8001C32.6465 12.2068 33.36 11.298 33.7104 10.2323C33.8098 10.3732 33.9192 10.5068 34.0379 10.6319C34.5961 11.1833 35.3117 11.5479 36.0859 11.6754V30.8724ZM39.4492 7.98682C39.4492 8.71564 39.1597 9.41462 38.6443 9.92998C38.129 10.4453 37.43 10.7349 36.7012 10.7349C35.9723 10.7349 35.2734 10.4453 34.758 9.92998C34.2426 9.41462 33.9531 8.71564 33.9531 7.98682V7.33057H39.4492V7.98682Z" fill="#3E60C9"/>
</svg>
