<svg width="47" height="48" viewBox="0 0 47 48" fill="none" xmlns="http://www.w3.org/2000/svg">
<g id="services=discount">
<g id="services=discount_2">
<path id="Vector" d="M21.1106 13.5584C21.4647 13.5584 21.8109 13.4721 22.1053 13.3104C22.3997 13.1487 22.6292 12.9189 22.7647 12.65C22.9002 12.3811 22.9356 12.0852 22.8665 11.7997C22.7975 11.5142 22.6269 11.252 22.3765 11.0462C22.1262 10.8404 21.8071 10.7003 21.4598 10.6435C21.1126 10.5867 20.7526 10.6159 20.4254 10.7273C20.0983 10.8387 19.8187 11.0273 19.622 11.2693C19.4253 11.5113 19.3203 11.7958 19.3203 12.0869C19.3208 12.4771 19.5096 12.8511 19.8453 13.127C20.1809 13.4028 20.636 13.558 21.1106 13.5584ZM21.1106 11.5675C21.2357 11.5675 21.358 11.598 21.4619 11.6551C21.5659 11.7122 21.647 11.7934 21.6948 11.8884C21.7427 11.9834 21.7552 12.0879 21.7308 12.1887C21.7064 12.2895 21.6462 12.3821 21.5578 12.4548C21.4693 12.5275 21.3567 12.577 21.234 12.5971C21.1113 12.6171 20.9842 12.6068 20.8686 12.5675C20.7531 12.5282 20.6543 12.4615 20.5849 12.3761C20.5154 12.2906 20.4783 12.1901 20.4783 12.0873C20.4783 11.9494 20.5449 11.8172 20.6635 11.7197C20.7821 11.6221 20.9429 11.5673 21.1106 11.5671V11.5675Z" fill="#3E60C9"/>
<path id="Vector_2" d="M24.0977 16.0111C24.0976 16.3021 24.2026 16.5866 24.3993 16.8287C24.5961 17.0707 24.8757 17.2593 25.2028 17.3707C25.5299 17.4821 25.8899 17.5112 26.2372 17.4545C26.5845 17.3977 26.9035 17.2575 27.1539 17.0517C27.4043 16.8459 27.5748 16.5837 27.6439 16.2982C27.713 16.0127 27.6775 15.7169 27.542 15.448C27.4065 15.179 27.177 14.9492 26.8826 14.7875C26.5881 14.6258 26.242 14.5395 25.8879 14.5396C25.4132 14.54 24.9582 14.6952 24.6226 14.971C24.287 15.2469 24.0982 15.6209 24.0977 16.0111ZM26.5202 16.0111C26.5202 16.1139 26.4832 16.2144 26.4137 16.2999C26.3442 16.3853 26.2455 16.452 26.1299 16.4913C26.0144 16.5307 25.8872 16.541 25.7646 16.5209C25.6419 16.5009 25.5292 16.4514 25.4408 16.3787C25.3523 16.306 25.2921 16.2134 25.2677 16.1126C25.2433 16.0117 25.2558 15.9072 25.3037 15.8123C25.3515 15.7173 25.4326 15.6361 25.5366 15.579C25.6405 15.5219 25.7628 15.4914 25.8879 15.4914C26.0555 15.4915 26.2163 15.5463 26.3349 15.6437C26.4534 15.7411 26.5201 15.8733 26.5203 16.0111H26.5202Z" fill="#3E60C9"/>
<path id="Vector_3" d="M20.6725 16.3725C20.7223 16.4134 20.7813 16.4458 20.8464 16.468C20.9114 16.4901 20.9811 16.5015 21.0514 16.5015C21.1218 16.5015 21.1915 16.4901 21.2565 16.468C21.3215 16.4458 21.3806 16.4134 21.4304 16.3725L26.3233 12.3506C26.3737 12.3098 26.4138 12.2613 26.4413 12.2077C26.4688 12.1541 26.4831 12.0966 26.4834 12.0384C26.4837 11.9803 26.4699 11.9227 26.443 11.8689C26.4161 11.8152 26.3764 11.7663 26.3264 11.7252C26.2764 11.6841 26.217 11.6515 26.1516 11.6294C26.0862 11.6072 26.0161 11.596 25.9454 11.5962C25.8746 11.5964 25.8046 11.6082 25.7395 11.6308C25.6743 11.6533 25.6152 11.6863 25.5656 11.7277L20.6726 15.7496C20.5721 15.8322 20.5156 15.9442 20.5156 16.061C20.5156 16.1778 20.572 16.2899 20.6725 16.3725Z" fill="#3E60C9"/>
<path id="Vector_4" d="M23.5003 20.4259C25.0347 20.4259 26.5346 20.0519 27.8104 19.3512C29.0862 18.6505 30.0806 17.6546 30.6678 16.4893C31.255 15.3241 31.4086 14.0419 31.1092 12.8049C30.8099 11.5679 30.071 10.4317 28.986 9.53987C27.901 8.64805 26.5187 8.04071 25.0138 7.79465C23.5089 7.5486 21.949 7.67488 20.5314 8.15753C19.1138 8.64019 17.9021 9.45753 17.0497 10.5062C16.1972 11.5549 15.7422 12.7878 15.7422 14.049C15.7445 15.7397 16.5626 17.3606 18.017 18.556C19.4715 19.7515 21.4434 20.424 23.5003 20.4259ZM23.5003 8.65844C24.7973 8.65844 26.0653 8.9746 27.1438 9.56693C28.2223 10.1593 29.0629 11.0012 29.5593 11.9862C30.0556 12.9712 30.1855 14.0551 29.9325 15.1008C29.6794 16.1465 29.0548 17.107 28.1376 17.8609C27.2204 18.6148 26.0518 19.1282 24.7796 19.3362C23.5075 19.5442 22.1888 19.4374 20.9905 19.0294C19.7921 18.6214 18.7679 17.9304 18.0472 17.0439C17.3266 16.1574 16.942 15.1152 16.942 14.049C16.944 12.6198 17.6356 11.2496 18.8651 10.239C20.0945 9.22847 21.7615 8.66002 23.5003 8.65844Z" fill="#3E60C9"/>
<path id="Vector_5" d="M37.2266 14.0489C37.2266 14.179 37.2824 14.3037 37.3817 14.3957C37.481 14.4877 37.6157 14.5394 37.7561 14.5394H40.2777C40.4181 14.5394 40.5528 14.4877 40.6521 14.3957C40.7514 14.3037 40.8072 14.179 40.8072 14.0489C40.8072 13.9188 40.7514 13.794 40.6521 13.702C40.5528 13.61 40.4181 13.5583 40.2777 13.5583H37.7561C37.6157 13.5583 37.481 13.61 37.3817 13.702C37.2824 13.794 37.2266 13.9188 37.2266 14.0489Z" fill="#3E60C9"/>
<path id="Vector_6" d="M38.7627 9.70494L36.2344 10.9651C36.1252 11.0222 36.0539 11.1053 36.0358 11.1969C36.0177 11.2884 36.0541 11.3811 36.1373 11.455C36.2206 11.5289 36.3439 11.5781 36.4811 11.5922C36.6182 11.6064 36.7582 11.5842 36.8711 11.5305L39.3995 10.2703C39.5122 10.214 39.5866 10.1303 39.6066 10.0376C39.6265 9.94481 39.5902 9.85058 39.5057 9.77561C39.4212 9.70064 39.2954 9.65108 39.156 9.63783C39.0166 9.62458 38.875 9.64872 38.7624 9.70494H38.7627Z" fill="#3E60C9"/>
<path id="Vector_7" d="M36.234 17.133L38.7624 18.3932C38.8181 18.421 38.8816 18.4413 38.9492 18.4528C39.0167 18.4643 39.087 18.4668 39.156 18.4603C39.225 18.4537 39.2915 18.4382 39.3515 18.4145C39.4115 18.3909 39.4639 18.3596 39.5057 18.3225C39.5475 18.2854 39.578 18.2431 39.5953 18.1982C39.6126 18.1532 39.6164 18.1065 39.6066 18.0605C39.5967 18.0146 39.5733 17.9704 39.5378 17.9305C39.5023 17.8906 39.4553 17.8557 39.3995 17.8278L36.8711 16.5676C36.7582 16.5139 36.6182 16.4917 36.4811 16.5059C36.3439 16.52 36.2206 16.5692 36.1373 16.6431C36.0541 16.717 36.0177 16.8097 36.0358 16.9012C36.0539 16.9928 36.1252 17.0759 36.2344 17.133H36.234Z" fill="#3E60C9"/>
<path id="Vector_8" d="M6.19141 14.0489C6.19141 14.179 6.2472 14.3037 6.3465 14.3957C6.44581 14.4877 6.5805 14.5394 6.72094 14.5394H9.24251C9.38296 14.5394 9.51765 14.4877 9.61695 14.3957C9.71626 14.3037 9.77205 14.179 9.77205 14.0489C9.77205 13.9188 9.71626 13.794 9.61695 13.702C9.51765 13.61 9.38296 13.5583 9.24251 13.5583H6.72094C6.5805 13.5583 6.44581 13.61 6.3465 13.702C6.2472 13.794 6.19141 13.9188 6.19141 14.0489Z" fill="#3E60C9"/>
<path id="Vector_9" d="M10.1273 16.5676L7.59908 17.8278C7.48644 17.8841 7.41197 17.9678 7.39206 18.0605C7.37214 18.1533 7.40842 18.2475 7.4929 18.3225C7.57739 18.3975 7.70316 18.447 7.84255 18.4603C7.98194 18.4735 8.12353 18.4494 8.23618 18.3932L10.7643 17.133C10.8734 17.0759 10.9447 16.9928 10.9628 16.9012C10.9809 16.8097 10.9445 16.717 10.8613 16.6431C10.7781 16.5692 10.6547 16.52 10.5176 16.5059C10.3805 16.4917 10.2405 16.5139 10.1276 16.5676H10.1273Z" fill="#3E60C9"/>
<path id="Vector_10" d="M10.7646 10.9654L8.23626 9.70494C8.1236 9.64872 7.982 9.62458 7.84259 9.63783C7.70319 9.65108 7.57741 9.70064 7.49291 9.77561C7.40842 9.85058 7.37214 9.94481 7.39206 10.0376C7.41197 10.1303 7.48645 10.214 7.59911 10.2703L10.1275 11.5305C10.2404 11.5842 10.3804 11.6064 10.5175 11.5922C10.6547 11.5781 10.7781 11.5289 10.8613 11.455C10.9445 11.3811 10.9809 11.2884 10.9628 11.1969C10.9447 11.1053 10.8734 11.0222 10.7643 10.9651L10.7646 10.9654Z" fill="#3E60C9"/>
<path id="Vector_11" d="M38.9026 21.6819C38.8733 21.6236 38.8271 21.5721 38.768 21.5322C38.709 21.4922 38.6389 21.465 38.564 21.4528L31.5043 19.4491L32.0088 19.238C32.4415 19.0569 32.8012 18.7754 33.0438 18.4278C33.2864 18.0802 33.4014 17.6816 33.3748 17.2807L33.3162 16.398C33.3009 16.1599 33.3779 15.924 33.5359 15.7246L34.1151 14.9971C34.3841 14.6597 34.5275 14.2643 34.5275 13.86C34.5275 13.4557 34.3841 13.0603 34.1151 12.7229L33.536 11.9954C33.378 11.796 33.301 11.5601 33.3163 11.322L33.3749 10.4393C33.4015 10.0384 33.2865 9.63981 33.044 9.29219C32.8014 8.94456 32.4417 8.66301 32.009 8.48197L31.0657 8.08734C30.8093 7.98066 30.6012 7.8084 30.4724 7.59609L29.9958 6.81484C29.7772 6.45649 29.4372 6.15866 29.0175 5.95777C28.5977 5.75688 28.1164 5.66164 27.6323 5.68369L26.5665 5.73224C26.2789 5.74481 25.9941 5.68104 25.7534 5.55021L24.875 5.07056C24.4676 4.84777 23.9901 4.729 23.5019 4.729C23.0137 4.729 22.5363 4.84777 22.1289 5.07056L21.2505 5.55021C21.0097 5.68085 20.7249 5.7446 20.4374 5.73224L19.3715 5.68369C18.8874 5.66146 18.406 5.75659 17.9863 5.95746C17.5665 6.15832 17.2265 6.45619 17.008 6.8146L16.5314 7.59585C16.4025 7.80818 16.1944 7.98045 15.938 8.0871L14.9948 8.48173C14.5621 8.66276 14.2024 8.94431 13.9598 9.29193C13.7173 9.63956 13.6022 10.0382 13.6289 10.4391L13.6875 11.3217C13.7028 11.5599 13.6258 11.7958 13.4678 11.9952L12.8885 12.7227C12.6195 13.0601 12.4761 13.4555 12.4761 13.8598C12.4761 14.2641 12.6195 14.6594 12.8885 14.9968L13.4677 15.7244C13.6257 15.9237 13.7027 16.1597 13.6874 16.3978L13.6288 17.2804C13.6022 17.6813 13.7172 18.0799 13.9597 18.4275C14.2023 18.7751 14.5619 19.0567 14.9947 19.2377L15.5399 19.4658L8.43961 21.4519C8.3645 21.4641 8.29418 21.4914 8.23489 21.5315C8.17561 21.5715 8.1292 21.6231 8.0998 21.6816L5.06261 26.4566C4.9936 26.5693 4.98109 26.7001 5.0278 26.8204C5.0745 26.9408 5.17664 27.041 5.31205 27.0994L8.34368 28.4296V37.6442C8.34089 37.7327 8.36864 37.8201 8.4237 37.8961C8.47875 37.9721 8.55882 38.0335 8.65451 38.0732L23.2584 43.9238C23.3353 43.9551 23.4197 43.9714 23.5054 43.9714C23.5916 43.9714 23.6767 43.9551 23.7541 43.9238L38.3501 38.0732C38.4457 38.0335 38.5256 37.972 38.5805 37.8961C38.6354 37.8201 38.663 37.7327 38.66 37.6442V28.4296L41.6952 27.0994C41.8294 27.0401 41.9299 26.9392 41.9746 26.8188C42.0193 26.6984 42.0046 26.5682 41.9338 26.4567L38.9026 21.6819ZM15.5139 18.3867C15.2809 18.2892 15.0872 18.1376 14.9566 17.9505C14.826 17.7633 14.7641 17.5486 14.7784 17.3328L14.8371 16.4501C14.8653 16.0079 14.7223 15.5697 14.4289 15.1995L13.8498 14.4721C13.705 14.2904 13.6277 14.0775 13.6277 13.8598C13.6277 13.6421 13.705 13.4291 13.8498 13.2475L14.429 12.52C14.7224 12.1498 14.8654 11.7116 14.8372 11.2694L14.7785 10.3867C14.7642 10.1709 14.8261 9.9562 14.9567 9.76901C15.0874 9.58182 15.281 9.43021 15.5141 9.33274L16.4572 8.9381C16.9334 8.74001 17.3198 8.42008 17.5591 8.02576L18.0356 7.24444C18.1534 7.05152 18.3364 6.89119 18.5624 6.78303C18.7884 6.67487 19.0476 6.62356 19.3082 6.63536L20.374 6.68398C20.908 6.70756 21.4372 6.58914 21.8842 6.346L22.7626 5.86627C22.982 5.74633 23.2391 5.68239 23.5019 5.68239C23.7648 5.68239 24.0219 5.74633 24.2412 5.86627L25.1196 6.346C25.5665 6.589 26.0955 6.70742 26.6294 6.68398L27.6952 6.63536C27.9559 6.6235 28.2151 6.67479 28.4412 6.78295C28.6672 6.89112 28.8504 7.05148 28.9682 7.24444L29.4447 8.0256C29.6839 8.41993 30.0703 8.7399 30.5464 8.93802L31.4898 9.33266C31.7228 9.43014 31.9165 9.58175 32.0471 9.76894C32.1777 9.95613 32.2396 10.1708 32.2253 10.3867L32.1665 11.2693C32.1384 11.7115 32.2814 12.1497 32.5748 12.5199L33.1538 13.2473C33.2987 13.429 33.3759 13.6419 33.3759 13.8596C33.3759 14.0774 33.2987 14.2903 33.1538 14.472L32.5747 15.1994C32.2813 15.5697 32.1383 16.0078 32.1664 16.4501L32.2252 17.3327C32.2395 17.5486 32.1776 17.7632 32.0469 17.9504C31.9163 18.1376 31.7226 18.2892 31.4896 18.3866L30.5464 18.7813C30.0702 18.9794 29.6838 19.2994 29.4446 19.6937L28.9681 20.475C28.85 20.6677 28.6669 20.8279 28.441 20.936C28.215 21.0442 27.956 21.0956 27.6955 21.0841L26.6297 21.0355C26.0957 21.0121 25.5666 21.1305 25.1194 21.3734L24.241 21.8531C24.0217 21.9731 23.7646 22.037 23.5017 22.037C23.2389 22.037 22.9818 21.9731 22.7624 21.8531L21.884 21.3734C21.4752 21.1514 20.9971 21.0329 20.5082 21.0324C20.4635 21.0324 20.4186 21.0334 20.3739 21.0355L19.3081 21.0841C19.0474 21.096 18.7882 21.0448 18.5622 20.9366C18.3361 20.8284 18.1531 20.668 18.0355 20.4749L17.559 19.6937C17.3197 19.2994 16.9334 18.9794 16.4572 18.7813L15.5139 18.3867ZM22.9262 42.7348L9.49493 37.3452V28.9366L20.1413 33.6313C20.222 33.6678 20.3125 33.687 20.4045 33.6869C20.4628 33.6869 20.5207 33.6792 20.5761 33.6643C20.649 33.6449 20.7165 33.6136 20.7745 33.5722C20.8326 33.5308 20.88 33.4802 20.9139 33.4234L22.9262 30.0877V42.7348ZM23.4998 27.5357L15.0245 24.0306C14.7655 23.9236 14.4515 23.9532 14.29 24.1916C14.2444 24.2478 14.2139 24.3115 14.2003 24.3782C14.1868 24.445 14.1906 24.5134 14.2114 24.5789C14.2323 24.6444 14.2698 24.7054 14.3214 24.758C14.373 24.8105 14.4375 24.8533 14.5106 24.8836L22.729 28.2821L20.146 32.5603L6.34059 26.4804L8.84255 22.5388L11.0491 23.4515C11.1857 23.508 11.3438 23.5172 11.4886 23.4772C11.6334 23.4371 11.7531 23.3511 11.8213 23.238C11.8895 23.1249 11.9006 22.9939 11.8523 22.874C11.8039 22.7541 11.7 22.655 11.5634 22.5985L10.0903 21.9893L16.5661 20.181L17.0079 20.905C17.2263 21.2635 17.5662 21.5615 17.986 21.7624C18.4058 21.9633 18.8872 22.0584 19.3713 22.0362L20.4372 21.9876C20.7247 21.9752 21.0095 22.0389 21.2503 22.1696L22.1287 22.6493C22.5361 22.8721 23.0135 22.9908 23.5017 22.9908C23.9899 22.9908 24.4674 22.8721 24.8748 22.6493L25.7532 22.1696C25.9939 22.0388 26.2788 21.9751 26.5663 21.9876L27.6321 22.0362C28.1162 22.0584 28.5977 21.9632 29.0174 21.7623C29.4372 21.5614 29.7771 21.2635 29.9956 20.905L30.4526 20.1559L36.9169 21.9862L23.4998 27.5357ZM37.5087 37.3452L24.0775 42.7348V30.0877L26.0915 33.4237C26.1393 33.5029 26.2128 33.5695 26.3037 33.616C26.3946 33.6626 26.4994 33.6872 26.6063 33.6872C26.696 33.6873 26.7842 33.6681 26.8623 33.6316L37.5087 28.9366V37.3452ZM26.8573 32.5601L24.2742 28.2818L38.1611 22.5388L40.6629 26.4803L26.8573 32.5601Z" fill="#3E60C9"/>
</g>
</g>
</svg>
