<svg width="41" height="42" viewBox="0 0 41 42" fill="none" xmlns="http://www.w3.org/2000/svg">
<path id="Vector" d="M40.0603 15.8797L36.1748 11.6462C35.8885 11.335 35.5122 11.121 35.0984 11.034C32.4837 4.49423 25.8733 0.123535 18.5398 0.123535C8.76717 0.123535 0.816406 7.73468 0.816406 17.09C0.816406 20.0928 1.74384 23.2405 3.57294 26.4454C5.02253 28.9854 7.04009 31.5689 9.5694 34.1244C13.8621 38.461 18.2186 41.2645 18.2621 41.2923C18.3451 41.3453 18.4414 41.3735 18.5399 41.3735C18.6383 41.3735 18.7346 41.3453 18.8176 41.2923C18.9001 41.2396 26.9659 36.0347 32.0599 28.7264C32.5023 28.9822 33.0001 29.127 33.5107 29.1482C34.0213 29.1694 34.5295 29.0664 34.9915 28.8481C35.4536 28.6299 35.8558 28.3027 36.1637 27.8949C36.4716 27.487 36.676 27.0105 36.7593 26.5063H38.172C38.4367 26.5069 38.6988 26.4553 38.9435 26.3542C39.1881 26.2532 39.4104 26.1048 39.5975 25.9177C39.7847 25.7305 39.933 25.5082 40.034 25.2635C40.1349 25.0189 40.1866 24.7567 40.1859 24.492V16.2282C40.1878 16.0997 40.1409 15.9753 40.0549 15.8799L40.0603 15.8797ZM35.4149 12.3067L38.5073 15.6782H33.8265V11.9829H34.6836C34.8213 11.9835 34.9573 12.0125 35.0832 12.0683C35.209 12.124 35.322 12.2052 35.4149 12.3067ZM18.5396 40.2398C15.5805 38.2181 12.8179 35.923 10.2882 33.3845C7.82564 30.8947 5.86592 28.3849 4.46325 25.9252C2.72731 22.8812 1.84766 19.9087 1.84766 17.0902C1.84766 8.3035 9.33573 1.13545 18.5398 1.13545C25.2924 1.13528 31.3904 5.10791 33.9622 10.9517H29.8596C27.5211 6.99854 23.2133 4.44473 18.5398 4.44473C13.561 4.44473 9.22316 7.25111 7.01405 11.3556C6.9788 11.4211 6.95797 11.4934 6.95295 11.5676C6.94794 11.6418 6.95886 11.7162 6.98497 11.7859C7.01109 11.8555 7.05181 11.9188 7.10439 11.9714C7.15697 12.024 7.22019 12.0648 7.28982 12.0909L7.29077 12.0937C7.40987 12.1366 7.54029 12.136 7.65901 12.0921C7.77772 12.0481 7.8771 11.9637 7.93959 11.8536C8.32975 11.1288 8.7328 10.4498 9.33436 9.82296V18.6001H6.53873C6.50839 18.2563 6.49206 17.8998 6.49206 17.5444C6.49182 16.5178 6.62329 15.4954 6.88325 14.5023C6.91796 14.373 6.90096 14.2354 6.83588 14.1185C6.77079 14.0016 6.66273 13.9146 6.5346 13.876L6.52678 13.8735C6.46136 13.8539 6.39265 13.8476 6.32474 13.8549C6.25683 13.8623 6.19109 13.8833 6.13141 13.9165C6.07173 13.9497 6.01933 13.9946 5.9773 14.0485C5.93527 14.1023 5.90447 14.164 5.88672 14.23C5.60331 15.3115 5.46016 16.425 5.46081 17.5431C5.46081 24.7548 11.328 30.6173 18.5398 30.6173C22.1372 30.6173 25.5889 29.1701 28.0547 26.506H30.5341C30.6263 27.0824 30.8794 27.621 31.2641 28.0599C26.8212 34.4728 19.9937 39.2615 18.5396 40.2398ZM32.7953 11.9829V15.6782H32.0219V11.9829H32.7953ZM17.2411 26.5063H26.5788C25.0269 27.9003 23.1392 28.8667 21.101 29.3107C19.0628 29.7546 16.9442 29.6609 14.9531 29.0388C15.5349 28.8762 16.0587 28.552 16.4637 28.1037C16.8687 27.6555 17.1382 27.1016 17.2411 26.5063ZM14.1286 28.1245C13.7084 28.1245 13.2977 28 12.9484 27.7667C12.599 27.5333 12.3267 27.2016 12.1659 26.8134C12.0051 26.4253 11.9629 25.9982 12.0449 25.5862C12.1268 25.1741 12.3291 24.7956 12.6261 24.4985C12.9232 24.2014 13.3016 23.9991 13.7137 23.9171C14.1257 23.8351 14.5528 23.8771 14.941 24.0379C15.3291 24.1986 15.6609 24.4709 15.8943 24.8202C16.1277 25.1695 16.2523 25.5802 16.2523 26.0003C16.2517 26.5634 16.0277 27.1033 15.6296 27.5015C15.2315 27.8997 14.6917 28.1237 14.1286 28.1245ZM17.2411 25.4751C16.9942 24.0142 15.6928 22.8354 14.1286 22.8354C12.5643 22.8354 11.2629 24.0142 11.016 25.4751H9.48793C8.64483 24.5332 7.96253 23.4589 7.4684 22.2954H27.2094V25.4751H17.2411ZM11.1555 27.0465C10.9337 26.8739 10.718 26.6782 10.5091 26.5063H11.0162C11.0483 26.6898 11.0949 26.8704 11.1555 27.0465ZM7.07987 21.2642C6.90954 20.7291 6.77371 20.1838 6.67322 19.6313H27.2094V21.2642H7.07987ZM10.3656 18.6001V8.7001C10.6788 8.39654 11.0127 8.11513 11.365 7.85791H14.3187V18.6001H10.3656ZM15.35 18.6001V7.85791H19.6469V18.6001H15.35ZM20.6781 18.6001V7.85791H22.9066C23.4555 7.86162 23.9808 8.08194 24.3681 8.47094C24.7555 8.85993 24.9736 9.38614 24.975 9.93511V18.6001H20.6781ZM26.0062 18.6001V9.93511C26.0045 9.11273 25.6777 8.32439 25.097 7.74207C24.5163 7.15974 23.7289 6.83067 22.9066 6.82666H13.0116C14.7185 5.93648 16.6148 5.47073 18.5398 5.46885C22.6413 5.46885 26.4379 7.6001 28.6506 10.9517H27.7245C27.4398 10.9517 27.2094 11.2216 27.2094 11.5064V18.6001H26.0062ZM28.2406 11.9829H30.9906V15.6782H28.2406V11.9829ZM33.6467 28.1245C33.2266 28.1244 32.8159 27.9999 32.4666 27.7664C32.1173 27.533 31.8451 27.2013 31.6843 26.8132C31.5236 26.425 31.4815 25.9979 31.5635 25.5859C31.6454 25.1739 31.8478 24.7954 32.1448 24.4983C32.4419 24.2013 32.8204 23.999 33.2324 23.917C33.6444 23.8351 34.0715 23.8772 34.4596 24.0379C34.8478 24.1987 35.1795 24.471 35.4129 24.8203C35.6463 25.1696 35.7709 25.5802 35.7709 26.0003C35.7702 26.5635 35.5462 27.1034 35.148 27.5017C34.7498 27.8999 34.2099 28.1239 33.6467 28.1245ZM39.1547 20.061H38.0375V18.8579H39.1547V20.061ZM39.1547 17.8267H37.8078C37.7022 17.8252 37.5974 17.8449 37.4996 17.8846C37.4017 17.9243 37.3128 17.9832 37.2381 18.0578C37.1634 18.1324 37.1044 18.2212 37.0646 18.319C37.0247 18.4168 37.0049 18.5216 37.0062 18.6272V20.3005C37.0051 20.4057 37.0251 20.5099 37.0651 20.6072C37.1051 20.7044 37.1643 20.7926 37.2391 20.8664C37.3139 20.9403 37.4027 20.9984 37.5005 21.0372C37.5982 21.076 37.7027 21.0947 37.8078 21.0923H39.1547V24.492C39.1555 24.6213 39.1306 24.7494 39.0815 24.8691C39.0324 24.9887 38.9601 25.0974 38.8687 25.1888C38.7773 25.2802 38.6686 25.3526 38.549 25.4018C38.4294 25.4509 38.3013 25.4759 38.172 25.4751H36.7593C36.5124 24.0142 35.2109 22.8354 33.6467 22.8354C32.0824 22.8354 30.7811 24.0142 30.5341 25.4751H28.2406V16.7095H39.1547V17.8267Z" fill="#3E60C9"/>
</svg>
